<?xml version="1.0" encoding="UTF-8"?>
<!DOCTYPE svg PUBLIC "-//W3C//DTD SVG 1.1//EN" "http://www.w3.org/Graphics/SVG/1.1/DTD/svg11.dtd">
<!-- Creator: CorelDRAW X8 -->
<svg xmlns="http://www.w3.org/2000/svg" xml:space="preserve" width="758px" height="179px" version="1.1" style="shape-rendering:geometricPrecision; text-rendering:geometricPrecision; image-rendering:optimizeQuality; fill-rule:evenodd; clip-rule:evenodd"
viewBox="0 0 758 179"
 xmlns:xlink="http://www.w3.org/1999/xlink">
 <defs>
  <style type="text/css">
   <![CDATA[
    .fil1 {fill:#F3931A;fill-rule:nonzero}
    .fil0 {fill:#252422;fill-rule:nonzero}
   ]]>
  </style>
 </defs>
 <g id="Слой_x0020_1">
  <metadata id="CorelCorpID_0Corel-Layer"/>
  <path class="fil0" d="M28 70l41 0c10,0 18,3 24,11 6,7 9,16 9,28 0,11 -3,20 -9,27 -6,8 -14,12 -24,12l-41 0 0 -78zm41 -28l-69 0 0 134 69 0c6,0 14,-2 23,-5 13,-5 23,-14 29,-26 6,-10 9,-22 9,-36 0,-19 -5,-34 -16,-47 -11,-13 -26,-20 -45,-20z"/>
  <path class="fil0" d="M461 156l0 -157 -28 26 0 151 44 0 -16 -20z"/>
  <path class="fil0" d="M695 41c-37,0 -66,32 -66,58 0,27 0,76 0,76l28 0c0,0 0,-51 0,-76 0,-4 8,-30 38,-30 28,0 38,24 38,31l0 75 28 0 0 -75c0,-27 -31,-59 -66,-59z"/>
  <path class="fil0" d="M144 68l29 -27 0 135 -29 0 0 -108z"/>
  <path class="fil1" d="M303 42l-45 -1 -66 68 22 22 1 1 43 44 44 0 -67 -67 68 -67z"/>
  <path class="fil0" d="M409 79c-10,-20 -31,-31 -31,-31 -9,-4 -19,-7 -29,-7 -20,0 -37,7 -50,20 -12,13 -19,29 -19,49 0,21 7,37 19,50 13,13 29,19 50,19 10,0 19,-2 28,-7l3 -1 0 -35c-1,1 -2,2 -3,3 -7,8 -17,12 -28,12 -11,0 -22,-5 -29,-12 -7,-7 -10,-17 -10,-29 0,-12 3,-21 10,-29 8,-7 17,-11 29,-11 11,0 21,4 28,11 7,8 11,17 11,29 0,2 -1,4 -1,5l1 0 0 61 28 0 0 -62c0,0 0,-23 -7,-35z"/>
  <path class="fil0" d="M606 79c-10,-20 -31,-31 -31,-31 -9,-4 -19,-7 -29,-7 -20,0 -37,7 -50,20 -12,13 -19,29 -19,49 0,21 7,37 19,50 13,13 29,19 50,19 10,0 19,-2 28,-7l3 -1 0 -35c-1,1 -2,2 -3,3 -7,8 -17,12 -28,12 -11,0 -22,-5 -29,-12 -7,-7 -10,-17 -10,-29 0,-12 3,-21 10,-29 8,-7 17,-11 29,-11 11,0 21,4 28,11 7,8 11,17 11,29 0,2 -1,4 -1,5l1 0 0 61 28 0 0 -62c0,0 0,-23 -7,-35z"/>
  <path class="fil0" d="M221 69l0 -71 0 0 -29 27 0 73 29 -29z"/>
  <path class="fil0" d="M210 138l-2 -2 -16 -16 0 56 29 0 0 -27 -11 -11z"/>
 </g>
</svg>
