<svg xmlns="http://www.w3.org/2000/svg" x="0" y="0" image-rendering="optimizeQuality" shape-rendering="geometricPrecision" text-rendering="geometricPrecision" viewBox="0 0 218 58" xml:space="preserve">
	<path d="M25 16c8.3-.3 15.2 6.3 15.4 14.5S34.2 45.7 25.9 46c-6.9.2-13.1-4.3-14.9-11a9.98 9.98 0 0017.8-9A9.98 9.98 0 0011 26c2-6 7-10 14-10zm90 42h-1c-4 .1-8 .1-12 0 53 0 96-13 96-28S155 3 102 3C72 3 46 7 28 13 47 5 79 0 115 0c57 0 103 13 103 29s-46 29-103 29z"/>
	<g id="ng">
		<path fill="#dc3832" fill-rule="evenodd" d="M3 25v-3s1-8 5-14c5-5 17-4 21 0 4 3 5 7 5 7s-14 0-20 6l-5 3s-2-5 1-9L4 25c-1 4-1 0-1 0z" clip-rule="evenodd"/>
		<path d="M0 26v4c0 1 0 0 0 0v1l2 1h4s-1 0 0 0l2-2v-4l-1-1-3-1-3 1c0 .6-.4 1-1 1zM16 27l-2-1 7-2h-1l1 1 5-3-1 2 3-3-1 2 5-2 4 1c1-2-1-3-1-3h1l-3-5-7 2 2-1-3 1 1-1c-6 1-11 5-11 5l1-2s-6 2-7 5l1 6 1-2v2c2-2 5-2 5-2z" style="fill-rule:evenodd;clip-rule:evenodd;fill:#fff"/>
	</g>
	<path d="M43 40.4l5.4-18.7h12.8c2.2 0 4 .1 5.5.3s2.5.6 3.2 1.2c.7.6 1.1 1.5 1.1 2.5 0 .6-.1 1.2-.3 2-.4 1.3-.9 2.3-1.5 3.2-.6.8-1.4 1.5-2.4 1.9-1 .5-2.2.8-3.6 1-1.4.2-3.1.3-5.2.3h-7.5l-1.8 6.1H43zm8.4-9.2h7.1c1.4 0 2.4-.1 3.2-.3.8-.2 1.4-.5 1.9-.9s.8-1.1 1.1-1.9c.2-.5.2-1 .2-1.4 0-.8-.3-1.3-1-1.6-.7-.3-1.9-.4-3.5-.4h-7.1l-1.9 6.5zm19.9 9.2l5.4-18.7h21l-.9 3H81.6L80.4 29h9.5c2.3 0 4.1.4 5.3 1.1 1.2.7 1.8 1.8 1.8 3.1 0 .5-.1 1-.2 1.6-.2.9-.7 1.7-1.2 2.4-.6.7-1.3 1.3-2.1 1.8-.9.5-1.9.9-3 1.1-1.1.2-2.4.4-3.8.4H71.3zm6.6-3h7.4c1.2 0 2.2-.1 3-.2.7-.1 1.3-.4 1.8-.8.4-.4.8-.9 1-1.7.1-.3.2-.7.2-1 0-.7-.3-1.1-1-1.4-.6-.3-1.7-.4-3.1-.4h-7.6l-1.7 5.5zm52.9-15.8h-8.3l-13.9 12.5-3.4 3.1c.6-.9 1.1-2 1.4-3.3l3.6-12.3h-5.8L99 40.3h8.3l13.9-12.6 3.4-3.1c-.6.9-1.1 2.1-1.4 3.3l-3.6 12.3h5.8l5.4-18.6zm7.1 18.8l4.5-15.6h-8.7l.9-3.1H158l-.9 3.1h-8.9l-4.5 15.6h-5.8zm38.4-3.6h-13l-2.9 3.6h-6l15.4-18.7h8.5l4.8 18.7h-5.9l-.9-3.6zm-.5-2.7l-2.4-9.7-8 9.7h10.4z"/>
</svg>