<?xml version="1.0" encoding="utf-8"?>
<!-- Generator: Adobe Illustrator 23.0.1, SVG Export Plug-In . SVG Version: 6.00 Build 0)  -->
<svg version="1.1"
	 id="Layer_1" image-rendering="optimizeQuality" text-rendering="geometricPrecision" shape-rendering="geometricPrecision"
	 xmlns="http://www.w3.org/2000/svg" xmlns:xlink="http://www.w3.org/1999/xlink" x="0px" y="0px" viewBox="0 0 218 58"
	 style="enable-background:new 0 0 218 58;" xml:space="preserve">
<style type="text/css">
	.st0{fill-rule:evenodd;clip-rule:evenodd;fill:#019AD7;}
	.st1{fill-rule:evenodd;clip-rule:evenodd;fill:#DC3832;}
	.st2{fill:none;}
	.st3{fill-rule:evenodd;clip-rule:evenodd;fill:#F2F2F2;}
	.st4{fill-rule:evenodd;clip-rule:evenodd;fill:#FFFFFF;}
</style>
<path class="st0" d="M25,16c8.3-0.3,15.2,6.3,15.4,14.5S34.2,45.7,25.9,46C19,46.2,12.8,41.7,11,35c2.5,4.9,8.5,6.9,13.4,4.4
	c4.9-2.5,6.9-8.5,4.4-13.4s-8.5-6.9-13.4-4.4c-1.9,1-3.5,2.5-4.4,4.4C13,20,18,16,25,16z M115,58h-1c-4,0.1-8,0.1-12,0
	c53,0,96-13,96-28S155,3,102,3C72,3,46,7,28,13C47,5,79,0,115,0c57,0,103,13,103,29S172,58,115,58z"/>
<path class="st1" d="M3,25v-3c0,0,1-8,5-14c5-5,17-4,21,0c4,3,5,7,5,7s-14,0-20,6l-5,3c0,0-2-5,1-9L4,25C3,29,3,25,3,25z"/>
<path class="st2" d="M26,84v-2c0,0,1-9,5-14c5-5,17-4,21-1l5,7c0,0-14,1-20,6l-5,4c0,0-2-6,1-9l-5,10C26,89,26,84,26,84z"/>
<path class="st2" d="M33,14h1H33z"/>
<path class="st3" d="M38,20C38,19,38,20,38,20l-3-5l1,1l-1-1l-1-1h-1l3,5h-1c0,0,2,1,1,3l-4-1l-5,2l1-2l-3,3l1-2l-6,3v-1h1l-7,2l2,1
	c0,0-3,0-5,2l2,2c1-2,5-3,5-3h-2c2-2,7-3,7-3v1l5-3l-1,2l3-2l-1,1l6-1c2-1,3,1,3,1V20z M8,30v-3v-1l-1-1l-3-1l2,1l1,1v3l-2,2
	c-1,0,0,0,0,0H2H1l-1-1v1l2,1h4c0,0-1,0,0,0L8,30z"/>
<g id="white">
	<path class="st2" d="M4,23c0,0,1-3,7-5l-1,1c0,0,6-4,10-4l-1,1l3-2l-1,1c0,0,7-2,10,0l-4,4l-13,2l-8,3L4,23z"/>
	<path class="st4" d="M0,26v4c0,1,0,0,0,0v1l2,1h4c0,0-1,0,0,0l2-2v-3v-1l-1-1l-3-1l-3,1C1,25.6,0.6,26,0,26z"/>
	<path class="st4" d="M16,27l-2-1l7-2h-1l1,1l5-3l-1,2l3-3l-1,2l5-2l4,1c1-2-1-3-1-3h1l-3-5l-7,2l2-1l-3,1l1-1c-6,1-11,5-11,5l1-2
		c0,0-6,2-7,5l1,6l1-2v2C13,27,16,27,16,27z"/>
</g>
<path class="st0" d="M43,40.4l5.4-18.7h12.8c2.2,0,4,0.1,5.5,0.3s2.5,0.6,3.2,1.2c0.7,0.6,1.1,1.5,1.1,2.5c0,0.6-0.1,1.2-0.3,2
	c-0.4,1.3-0.9,2.3-1.5,3.2c-0.6,0.8-1.4,1.5-2.4,1.9c-1,0.5-2.2,0.8-3.6,1c-1.4,0.2-3.1,0.3-5.2,0.3h-7.5l-1.8,6.1H43z M51.4,31.2
	h7.1c1.4,0,2.4-0.1,3.2-0.3c0.8-0.2,1.4-0.5,1.9-0.9c0.5-0.4,0.8-1.1,1.1-1.9c0.2-0.5,0.2-1,0.2-1.4c0-0.8-0.3-1.3-1-1.6
	c-0.7-0.3-1.9-0.4-3.5-0.4h-7.1L51.4,31.2z M71.3,40.4l5.4-18.7h21l-0.9,3H81.6l-1.2,4.3h9.5c2.3,0,4.1,0.4,5.3,1.1
	c1.2,0.7,1.8,1.8,1.8,3.1c0,0.5-0.1,1-0.2,1.6c-0.2,0.9-0.7,1.7-1.2,2.4c-0.6,0.7-1.3,1.3-2.1,1.8c-0.9,0.5-1.9,0.9-3,1.1
	c-1.1,0.2-2.4,0.4-3.8,0.4H71.3z M77.9,37.4h7.4c1.2,0,2.2-0.1,3-0.2c0.7-0.1,1.3-0.4,1.8-0.8c0.4-0.4,0.8-0.9,1-1.7
	c0.1-0.3,0.2-0.7,0.2-1c0-0.7-0.3-1.1-1-1.4c-0.6-0.3-1.7-0.4-3.1-0.4h-7.6L77.9,37.4z M130.8,21.6h-8.3l-13.9,12.5
	c-0.1,0.1-1.2,1.1-3.4,3.1c0.6-0.9,1.1-2,1.4-3.3l3.6-12.3h-5.8l-5.4,18.7h8.3l13.9-12.6c0.1-0.1,1.2-1.1,3.4-3.1
	c-0.6,0.9-1.1,2.1-1.4,3.3l-3.6,12.3h5.8L130.8,21.6z M137.9,40.4l4.5-15.6h-8.7l0.9-3.1h23.4l-0.9,3.1h-8.9l-4.5,15.6H137.9z
	 M176.3,36.8h-13l-2.9,3.6h-6l15.4-18.7h8.5l4.8,18.7h-5.9L176.3,36.8z M175.8,34.1l-2.4-9.7l-8,9.7H175.8z"/>
</svg>
